<svg width="22" height="17" viewBox="0 0 22 17" fill="none" xmlns="http://www.w3.org/2000/svg">
<path d="M21.352 0.815221C20.0187 0.224676 18.6842 4.3656e-08 17.3505 4.3656e-08C13.1166 -0.000362922 8.88305 2.26273 4.64915 2.26273C3.58732 2.26273 2.52618 2.12045 1.46435 1.76474C1.34507 1.72481 1.22545 1.70594 1.10858 1.70594C0.516992 1.70594 0 2.18941 0 2.86053V14.376C0 14.8344 0.248527 15.2689 0.647615 15.4453C1.981 16.0362 3.31542 16.2609 4.64915 16.2609C8.88305 16.2609 13.117 13.9978 17.3509 13.9978C18.4127 13.9978 19.4738 14.1401 20.5356 14.4958C20.6549 14.5357 20.7745 14.5546 20.8914 14.5546C21.483 14.5546 22 14.0711 22 13.4V1.88488C21.9997 1.42609 21.7511 0.991986 21.352 0.815221ZM1.64997 3.63764C2.34159 3.82058 3.06345 3.91241 3.80594 3.96177C3.60382 5.02853 2.71558 5.8325 1.64997 5.8325V3.63764ZM1.64997 13.9822V12.2479C2.83142 12.2479 3.78738 13.2377 3.83997 14.4765C3.06551 14.4108 2.34159 14.2475 1.64997 13.9822ZM10.9998 11.6149C9.48082 11.6149 8.24987 10.0545 8.24987 8.13043C8.24987 6.20599 9.48116 4.64596 10.9998 4.64596C12.5185 4.64596 13.7498 6.20599 13.7498 8.13043C13.7498 10.0552 12.5181 11.6149 10.9998 11.6149ZM20.3497 12.6232C19.7474 12.4639 19.1222 12.3746 18.4825 12.3169C18.6842 11.3703 19.4278 10.6516 20.3497 10.5282V12.6232ZM20.3497 4.05324C19.2879 3.91132 18.4639 2.97523 18.4312 1.81918C19.1029 1.89795 19.7406 2.04531 20.3497 2.2787V4.05324Z" fill="#0065FC"/>
</svg>
