<svg width="5" height="15" viewBox="0 0 5 15" fill="none" xmlns="http://www.w3.org/2000/svg">
<path d="M4.16667 12.1872H3.33333V5.62471C3.33333 5.10644 2.96016 4.68721 2.5 4.68721H0.833333C0.373177 4.68721 0 5.10644 0 5.62471C0 6.14297 0.373177 6.53584 0.833333 6.53584H1.66667V12.1608H0.833333C0.373177 12.1608 0 12.5801 0 13.0983C0 13.6166 0.373177 14.0358 0.833333 14.0358H4.16667C4.62682 14.0358 5 13.6166 5 13.0983C5 12.5801 4.6276 12.1872 4.16667 12.1872ZM2.5 2.81221C3.19036 2.81221 3.75 2.18262 3.75 1.40596C3.75 0.629297 3.1901 0 2.5 0C1.8099 0 1.25 0.62959 1.25 1.40625C1.25 2.18291 1.80964 2.81221 2.5 2.81221Z" fill="#0065FC"/>
</svg>
