<svg width="18" height="21" viewBox="0 0 18 21" fill="none" xmlns="http://www.w3.org/2000/svg">
<path d="M6.40045 0.212729C6.71384 -0.0735102 7.2 -0.0695891 7.51339 0.21665C8.62232 1.23221 9.66295 2.32619 10.6353 3.51036C11.0772 2.94572 11.5795 2.33011 12.1219 1.82821C12.4393 1.53805 12.9295 1.53805 13.2469 1.83214C14.6371 3.12609 15.8143 4.83568 16.642 6.45901C17.4576 8.05881 18 9.6939 18 10.8467C18 15.85 13.9902 20.0769 9 20.0769C3.95357 20.0769 0 15.8461 0 10.8428C0 9.33708 0.715179 7.4981 1.82411 5.67872C2.94509 3.83189 4.52812 1.90664 6.40045 0.212729ZM9.0683 16.3127C10.0848 16.3127 10.9848 16.0382 11.8326 15.4893C13.5241 14.3365 13.9781 12.0309 12.9616 10.2193C12.7808 9.86643 12.3188 9.84291 12.0576 10.1409L11.0451 11.2898C10.7799 11.5878 10.3018 11.5799 10.0527 11.2702C9.38973 10.4468 8.20446 8.97635 7.52946 8.14116C7.27634 7.82747 6.7942 7.82355 6.53705 8.13723C5.17902 9.80369 4.49598 10.8545 4.49598 12.0348C4.5 14.7207 6.53304 16.3127 9.0683 16.3127Z" fill="#0065FC"/>
</svg>
