<svg width="379" height="51" viewBox="0 0 379 51" fill="none" xmlns="http://www.w3.org/2000/svg">
<rect x="0.5" y="0.5" width="378" height="50" rx="15.5" fill="white"/>
<rect x="0.5" y="0.5" width="378" height="50" rx="15.5" stroke="#F2F2F2"/>
<rect x="328.5" y="0.5" width="50" height="50" rx="15.5" fill="#0065FC"/>
<rect x="328.5" y="0.5" width="50" height="50" rx="15.5" stroke="#0065FC"/>
<path d="M361.769 31.6976L358.458 28.3876C358.309 28.2382 358.106 28.1552 357.894 28.1552H357.352C358.269 26.9832 358.814 25.5091 358.814 23.9056C358.814 20.0909 355.722 17 351.907 17C348.091 17 345 20.0909 345 23.9056C345 27.7202 348.091 30.8112 351.907 30.8112C353.511 30.8112 354.985 30.2667 356.157 29.3504V29.8915C356.157 30.104 356.24 30.3065 356.39 30.4559L359.7 33.7659C360.012 34.078 360.517 34.078 360.826 33.7659L361.765 32.8264C362.078 32.5143 362.078 32.0097 361.769 31.6976ZM351.907 28.1552C349.559 28.1552 347.656 26.2561 347.656 23.9056C347.656 21.5583 349.556 19.656 351.907 19.656C354.254 19.656 356.157 21.555 356.157 23.9056C356.157 26.2528 354.258 28.1552 351.907 28.1552Z" fill="white"/>
<path d="M86.9796 32V23.612L83.7036 29.858H82.3176L79.0416 23.612V32H76.5576V19.22H79.2216L83.0016 26.492L86.8176 19.22H89.4636V32H86.9796ZM91.1443 29.21C91.1443 28.598 91.3123 28.064 91.6483 27.608C91.9963 27.14 92.4763 26.78 93.0883 26.528C93.7003 26.276 94.4023 26.15 95.1943 26.15C95.5903 26.15 95.9923 26.18 96.4003 26.24C96.8083 26.3 97.1623 26.396 97.4623 26.528V26.024C97.4623 25.424 97.2823 24.962 96.9223 24.638C96.5743 24.314 96.0523 24.152 95.3563 24.152C94.8403 24.152 94.3483 24.242 93.8803 24.422C93.4123 24.602 92.9203 24.866 92.4043 25.214L91.6303 23.63C92.2543 23.222 92.8903 22.916 93.5383 22.712C94.1983 22.508 94.8883 22.406 95.6083 22.406C96.9523 22.406 97.9963 22.742 98.7403 23.414C99.4963 24.086 99.8743 25.046 99.8743 26.294V29.3C99.8743 29.552 99.9163 29.732 100 29.84C100.096 29.948 100.246 30.014 100.45 30.038V32C100.234 32.036 100.036 32.066 99.8563 32.09C99.6883 32.114 99.5443 32.126 99.4243 32.126C98.9443 32.126 98.5783 32.018 98.3263 31.802C98.0863 31.586 97.9363 31.322 97.8763 31.01L97.8223 30.524C97.4143 31.052 96.9043 31.46 96.2923 31.748C95.6803 32.036 95.0563 32.18 94.4203 32.18C93.7963 32.18 93.2323 32.054 92.7283 31.802C92.2363 31.538 91.8463 31.184 91.5583 30.74C91.2823 30.284 91.1443 29.774 91.1443 29.21ZM97.0123 29.696C97.1443 29.552 97.2523 29.408 97.3363 29.264C97.4203 29.12 97.4623 28.988 97.4623 28.868V27.914C97.1743 27.794 96.8623 27.704 96.5263 27.644C96.1903 27.572 95.8723 27.536 95.5723 27.536C94.9483 27.536 94.4323 27.674 94.0243 27.95C93.6283 28.214 93.4303 28.568 93.4303 29.012C93.4303 29.252 93.4963 29.48 93.6283 29.696C93.7603 29.912 93.9523 30.086 94.2043 30.218C94.4563 30.35 94.7563 30.416 95.1043 30.416C95.4643 30.416 95.8183 30.35 96.1663 30.218C96.5143 30.074 96.7963 29.9 97.0123 29.696ZM107.744 24.656C107.012 24.656 106.358 24.8 105.782 25.088C105.206 25.364 104.792 25.766 104.54 26.294V32H102.128V22.568H104.342V24.584C104.678 23.936 105.104 23.426 105.62 23.054C106.136 22.682 106.682 22.478 107.258 22.442C107.39 22.442 107.492 22.442 107.564 22.442C107.636 22.442 107.696 22.448 107.744 22.46V24.656ZM112.563 32.18C111.759 32.18 110.991 32.048 110.259 31.784C109.527 31.52 108.897 31.13 108.369 30.614L109.233 29.048C109.797 29.504 110.349 29.84 110.889 30.056C111.441 30.272 111.969 30.38 112.473 30.38C112.941 30.38 113.313 30.296 113.589 30.128C113.877 29.96 114.021 29.708 114.021 29.372C114.021 29.144 113.943 28.97 113.787 28.85C113.631 28.718 113.403 28.604 113.103 28.508C112.815 28.412 112.461 28.304 112.041 28.184C111.345 27.956 110.763 27.734 110.295 27.518C109.827 27.302 109.473 27.032 109.233 26.708C109.005 26.372 108.891 25.946 108.891 25.43C108.891 24.806 109.047 24.272 109.359 23.828C109.683 23.372 110.127 23.018 110.691 22.766C111.267 22.514 111.939 22.388 112.707 22.388C113.379 22.388 114.015 22.496 114.615 22.712C115.215 22.916 115.761 23.252 116.253 23.72L115.281 25.25C114.801 24.878 114.345 24.608 113.913 24.44C113.481 24.26 113.043 24.17 112.599 24.17C112.347 24.17 112.107 24.2 111.879 24.26C111.663 24.32 111.483 24.422 111.339 24.566C111.207 24.698 111.141 24.89 111.141 25.142C111.141 25.37 111.201 25.55 111.321 25.682C111.453 25.802 111.645 25.91 111.897 26.006C112.161 26.102 112.479 26.21 112.851 26.33C113.607 26.546 114.243 26.768 114.759 26.996C115.287 27.224 115.683 27.506 115.947 27.842C116.211 28.166 116.343 28.616 116.343 29.192C116.343 30.128 116.001 30.86 115.317 31.388C114.633 31.916 113.715 32.18 112.563 32.18ZM122.358 32.18C121.602 32.18 120.918 32.054 120.306 31.802C119.694 31.538 119.172 31.184 118.74 30.74C118.308 30.284 117.972 29.768 117.732 29.192C117.504 28.604 117.39 27.986 117.39 27.338C117.39 26.438 117.588 25.616 117.984 24.872C118.392 24.128 118.968 23.534 119.712 23.09C120.468 22.634 121.356 22.406 122.376 22.406C123.408 22.406 124.29 22.634 125.022 23.09C125.754 23.534 126.312 24.128 126.696 24.872C127.092 25.604 127.29 26.396 127.29 27.248C127.29 27.392 127.284 27.542 127.272 27.698C127.26 27.842 127.248 27.962 127.236 28.058H119.946C119.994 28.538 120.132 28.958 120.36 29.318C120.6 29.678 120.9 29.954 121.26 30.146C121.632 30.326 122.028 30.416 122.448 30.416C122.928 30.416 123.378 30.302 123.798 30.074C124.23 29.834 124.524 29.522 124.68 29.138L126.75 29.714C126.522 30.194 126.192 30.62 125.76 30.992C125.34 31.364 124.842 31.658 124.266 31.874C123.69 32.078 123.054 32.18 122.358 32.18ZM119.892 26.528H124.824C124.776 26.048 124.638 25.634 124.41 25.286C124.194 24.926 123.906 24.65 123.546 24.458C123.186 24.254 122.784 24.152 122.34 24.152C121.908 24.152 121.512 24.254 121.152 24.458C120.804 24.65 120.516 24.926 120.288 25.286C120.072 25.634 119.94 26.048 119.892 26.528ZM128.759 32V22.568H131.171V32H128.759ZM128.759 21.254V18.86H131.171V21.254H128.759ZM133.329 18.86H135.741V28.976C135.741 29.408 135.813 29.702 135.957 29.858C136.101 30.002 136.299 30.074 136.551 30.074C136.743 30.074 136.941 30.05 137.145 30.002C137.349 29.954 137.529 29.894 137.685 29.822L138.009 31.658C137.685 31.814 137.307 31.934 136.875 32.018C136.443 32.102 136.053 32.144 135.705 32.144C134.949 32.144 134.361 31.946 133.941 31.55C133.533 31.142 133.329 30.566 133.329 29.822V18.86ZM139.042 18.86H141.454V28.976C141.454 29.408 141.526 29.702 141.67 29.858C141.814 30.002 142.012 30.074 142.264 30.074C142.456 30.074 142.654 30.05 142.858 30.002C143.062 29.954 143.242 29.894 143.398 29.822L143.722 31.658C143.398 31.814 143.02 31.934 142.588 32.018C142.156 32.102 141.766 32.144 141.418 32.144C140.662 32.144 140.074 31.946 139.654 31.55C139.246 31.142 139.042 30.566 139.042 29.822V18.86ZM149.147 32.18C148.391 32.18 147.707 32.054 147.095 31.802C146.483 31.538 145.961 31.184 145.529 30.74C145.097 30.284 144.761 29.768 144.521 29.192C144.293 28.604 144.179 27.986 144.179 27.338C144.179 26.438 144.377 25.616 144.773 24.872C145.181 24.128 145.757 23.534 146.501 23.09C147.257 22.634 148.145 22.406 149.165 22.406C150.197 22.406 151.079 22.634 151.811 23.09C152.543 23.534 153.101 24.128 153.485 24.872C153.881 25.604 154.079 26.396 154.079 27.248C154.079 27.392 154.073 27.542 154.061 27.698C154.049 27.842 154.037 27.962 154.025 28.058H146.735C146.783 28.538 146.921 28.958 147.149 29.318C147.389 29.678 147.689 29.954 148.049 30.146C148.421 30.326 148.817 30.416 149.237 30.416C149.717 30.416 150.167 30.302 150.587 30.074C151.019 29.834 151.313 29.522 151.469 29.138L153.539 29.714C153.311 30.194 152.981 30.62 152.549 30.992C152.129 31.364 151.631 31.658 151.055 31.874C150.479 32.078 149.843 32.18 149.147 32.18ZM146.681 26.528H151.613C151.565 26.048 151.427 25.634 151.199 25.286C150.983 24.926 150.695 24.65 150.335 24.458C149.975 24.254 149.573 24.152 149.129 24.152C148.697 24.152 148.301 24.254 147.941 24.458C147.593 24.65 147.305 24.926 147.077 25.286C146.861 25.634 146.729 26.048 146.681 26.528ZM155.764 34.07L156.25 31.928H155.494V29.408H157.582V31.928L156.844 34.07H155.764ZM164.29 32V19.22H172.876V21.398H166.774V24.692H171.85V26.708H166.774V32H164.29ZM179.533 24.656C178.801 24.656 178.147 24.8 177.571 25.088C176.995 25.364 176.581 25.766 176.329 26.294V32H173.917V22.568H176.131V24.584C176.467 23.936 176.893 23.426 177.409 23.054C177.925 22.682 178.471 22.478 179.047 22.442C179.179 22.442 179.281 22.442 179.353 22.442C179.425 22.442 179.485 22.448 179.533 22.46V24.656ZM180.178 29.21C180.178 28.598 180.346 28.064 180.682 27.608C181.03 27.14 181.51 26.78 182.122 26.528C182.734 26.276 183.436 26.15 184.228 26.15C184.624 26.15 185.026 26.18 185.434 26.24C185.842 26.3 186.196 26.396 186.496 26.528V26.024C186.496 25.424 186.316 24.962 185.956 24.638C185.608 24.314 185.086 24.152 184.39 24.152C183.874 24.152 183.382 24.242 182.914 24.422C182.446 24.602 181.954 24.866 181.438 25.214L180.664 23.63C181.288 23.222 181.924 22.916 182.572 22.712C183.232 22.508 183.922 22.406 184.642 22.406C185.986 22.406 187.03 22.742 187.774 23.414C188.53 24.086 188.908 25.046 188.908 26.294V29.3C188.908 29.552 188.95 29.732 189.034 29.84C189.13 29.948 189.28 30.014 189.484 30.038V32C189.268 32.036 189.07 32.066 188.89 32.09C188.722 32.114 188.578 32.126 188.458 32.126C187.978 32.126 187.612 32.018 187.36 31.802C187.12 31.586 186.97 31.322 186.91 31.01L186.856 30.524C186.448 31.052 185.938 31.46 185.326 31.748C184.714 32.036 184.09 32.18 183.454 32.18C182.83 32.18 182.266 32.054 181.762 31.802C181.27 31.538 180.88 31.184 180.592 30.74C180.316 30.284 180.178 29.774 180.178 29.21ZM186.046 29.696C186.178 29.552 186.286 29.408 186.37 29.264C186.454 29.12 186.496 28.988 186.496 28.868V27.914C186.208 27.794 185.896 27.704 185.56 27.644C185.224 27.572 184.906 27.536 184.606 27.536C183.982 27.536 183.466 27.674 183.058 27.95C182.662 28.214 182.464 28.568 182.464 29.012C182.464 29.252 182.53 29.48 182.662 29.696C182.794 29.912 182.986 30.086 183.238 30.218C183.49 30.35 183.79 30.416 184.138 30.416C184.498 30.416 184.852 30.35 185.2 30.218C185.548 30.074 185.83 29.9 186.046 29.696ZM199.927 32H197.515V26.708C197.515 25.952 197.383 25.4 197.119 25.052C196.855 24.704 196.489 24.53 196.021 24.53C195.697 24.53 195.367 24.614 195.031 24.782C194.707 24.95 194.413 25.184 194.149 25.484C193.885 25.772 193.693 26.108 193.573 26.492V32H191.161V22.568H193.339V24.314C193.579 23.906 193.885 23.564 194.257 23.288C194.629 23 195.055 22.784 195.535 22.64C196.027 22.484 196.543 22.406 197.083 22.406C197.671 22.406 198.151 22.514 198.523 22.73C198.907 22.934 199.195 23.216 199.387 23.576C199.591 23.924 199.729 24.32 199.801 24.764C199.885 25.208 199.927 25.658 199.927 26.114V32ZM206.417 32.18C205.649 32.18 204.959 32.054 204.347 31.802C203.735 31.538 203.213 31.178 202.781 30.722C202.349 30.254 202.013 29.726 201.773 29.138C201.545 28.55 201.431 27.932 201.431 27.284C201.431 26.396 201.629 25.586 202.025 24.854C202.433 24.11 203.009 23.516 203.753 23.072C204.497 22.628 205.379 22.406 206.399 22.406C207.419 22.406 208.295 22.628 209.027 23.072C209.759 23.516 210.305 24.098 210.665 24.818L208.307 25.538C208.103 25.19 207.833 24.926 207.497 24.746C207.161 24.554 206.789 24.458 206.381 24.458C205.925 24.458 205.505 24.578 205.121 24.818C204.749 25.046 204.455 25.376 204.239 25.808C204.023 26.228 203.915 26.72 203.915 27.284C203.915 27.836 204.023 28.328 204.239 28.76C204.467 29.18 204.767 29.516 205.139 29.768C205.511 30.008 205.925 30.128 206.381 30.128C206.669 30.128 206.939 30.08 207.191 29.984C207.455 29.888 207.689 29.756 207.893 29.588C208.097 29.42 208.247 29.228 208.343 29.012L210.701 29.732C210.485 30.2 210.167 30.62 209.747 30.992C209.339 31.364 208.853 31.658 208.289 31.874C207.737 32.078 207.113 32.18 206.417 32.18ZM216.471 32.18C215.715 32.18 215.031 32.054 214.419 31.802C213.807 31.538 213.285 31.184 212.853 30.74C212.421 30.284 212.085 29.768 211.845 29.192C211.617 28.604 211.503 27.986 211.503 27.338C211.503 26.438 211.701 25.616 212.097 24.872C212.505 24.128 213.081 23.534 213.825 23.09C214.581 22.634 215.469 22.406 216.489 22.406C217.521 22.406 218.403 22.634 219.135 23.09C219.867 23.534 220.425 24.128 220.809 24.872C221.205 25.604 221.403 26.396 221.403 27.248C221.403 27.392 221.397 27.542 221.385 27.698C221.373 27.842 221.361 27.962 221.349 28.058H214.059C214.107 28.538 214.245 28.958 214.473 29.318C214.713 29.678 215.013 29.954 215.373 30.146C215.745 30.326 216.141 30.416 216.561 30.416C217.041 30.416 217.491 30.302 217.911 30.074C218.343 29.834 218.637 29.522 218.793 29.138L220.863 29.714C220.635 30.194 220.305 30.62 219.873 30.992C219.453 31.364 218.955 31.658 218.379 31.874C217.803 32.078 217.167 32.18 216.471 32.18ZM214.005 26.528H218.937C218.889 26.048 218.751 25.634 218.523 25.286C218.307 24.926 218.019 24.65 217.659 24.458C217.299 24.254 216.897 24.152 216.453 24.152C216.021 24.152 215.625 24.254 215.265 24.458C214.917 24.65 214.629 24.926 214.401 25.286C214.185 25.634 214.053 26.048 214.005 26.528Z" fill="black"/>
<path d="M51.5 0.5V50.5H16C7.43959 50.5 0.5 43.5604 0.5 35V16C0.5 7.43959 7.43959 0.500001 16 0.5H51.5Z" fill="#F2F2F2" stroke="#F2F2F2"/>
<path d="M25.1359 33.5955C23.2328 31.3326 19 25.8481 19 22.7675C19 19.0299 22.134 16 26 16C29.8646 16 33 19.0299 33 22.7675C33 25.8481 28.7344 31.3326 26.8641 33.5955C26.4156 34.1348 25.5844 34.1348 25.1359 33.5955ZM26 25.0234C27.287 25.0234 28.3333 24.0117 28.3333 22.7675C28.3333 21.5233 27.287 20.5117 26 20.5117C24.713 20.5117 23.6667 21.5233 23.6667 22.7675C23.6667 24.0117 24.713 25.0234 26 25.0234Z" fill="black"/>
</svg>
